<svg width="30" height="37" viewBox="0 0 30 37" fill="none" xmlns="http://www.w3.org/2000/svg">
<path d="M22.2069 3.90125H26.3513C26.7955 3.90125 27.2214 4.0794 27.5354 4.39652C27.8494 4.71363 28.0259 5.14373 28.0259 5.5922V33.493C28.0259 33.9415 27.8494 34.3716 27.5354 34.6887C27.2214 35.0058 26.7955 35.184 26.3513 35.184H2.90827C2.46416 35.184 2.03825 35.0058 1.72422 34.6887C1.41019 34.3716 1.23376 33.9415 1.23376 33.493V5.5922C1.23376 5.14373 1.41019 4.71363 1.72422 4.39652C2.03825 4.0794 2.46416 3.90125 2.90827 3.90125H8.76904V6.43768H20.4906V3.90125H22.2069Z" stroke="#A9DFD8" stroke-width="2.24766" stroke-linejoin="round"/>
<path d="M17.1417 14.0463L10.4437 20.811H18.8195L12.1182 27.5748M8.76917 1.36414H20.4907V6.43701H8.76917V1.36414Z" stroke="#A9DFD8" stroke-width="2.24766" stroke-linecap="round" stroke-linejoin="round"/>
</svg>
