<svg width="34" height="36" viewBox="0 0 34 36" fill="none" xmlns="http://www.w3.org/2000/svg">
<path d="M16.1024 17.847C20.6486 17.847 24.334 14.2131 24.334 9.73044C24.334 5.24779 20.6486 1.61389 16.1024 1.61389C11.5563 1.61389 7.87085 5.24779 7.87085 9.73044C7.87085 14.2131 11.5563 17.847 16.1024 17.847Z" stroke="#20AEF3" stroke-width="2.24766"/>
<path d="M22.6879 24.3401H32.5658M24.3342 34.08H5.01626C4.54933 34.0801 4.08772 33.9823 3.66207 33.793C3.23642 33.6038 2.85645 33.3274 2.5474 32.9823C2.23834 32.6372 2.00726 32.2312 1.86949 31.7913C1.73172 31.3514 1.69041 30.8876 1.74831 30.4308L2.39038 25.3596C2.53969 24.1814 3.12038 23.0976 4.02325 22.312C4.92612 21.5264 6.08896 21.0931 7.29312 21.0935H7.87098L24.3342 34.08ZM27.6268 19.4702V29.2101V19.4702Z" stroke="#20AEF3" stroke-width="2.24766" stroke-linecap="round" stroke-linejoin="round"/>
</svg>
