<svg width="34" height="37" viewBox="0 0 34 37" fill="none" xmlns="http://www.w3.org/2000/svg">
<path d="M25.2149 9.22317H30.6173C30.9441 9.22349 31.2591 9.34509 31.5013 9.56439C31.7435 9.7837 31.8957 10.0851 31.9283 10.4102L32.7329 18.4557H30.0792L29.4197 11.861H25.2149V15.8179C25.2149 16.1677 25.076 16.5031 24.8286 16.7505C24.5813 16.9978 24.2458 17.1368 23.896 17.1368C23.5462 17.1368 23.2107 16.9978 22.9634 16.7505C22.716 16.5031 22.5771 16.1677 22.5771 15.8179V11.861H12.0256V15.8179C12.0256 16.1677 11.8866 16.5031 11.6392 16.7505C11.3919 16.9978 11.0564 17.1368 10.7066 17.1368C10.3568 17.1368 10.0213 16.9978 9.77399 16.7505C9.52664 16.5031 9.38768 16.1677 9.38768 15.8179V11.861H5.18026L3.06996 32.9641H17.3013V35.6019H1.61122C1.427 35.6018 1.24486 35.563 1.07654 35.4881C0.908214 35.4133 0.757441 35.304 0.63393 35.1673C0.51042 35.0306 0.416911 34.8696 0.35943 34.6945C0.301949 34.5195 0.281769 34.3344 0.300191 34.1511L2.67428 10.4102C2.70695 10.0851 2.85914 9.7837 3.10135 9.56439C3.34357 9.34509 3.65856 9.22349 3.98531 9.22317H9.38768V8.30255C9.38768 3.72847 12.9119 -0.00939941 17.3013 -0.00939941C21.6907 -0.00939941 25.2149 3.72847 25.2149 8.30255V9.22581V9.22317ZM22.5771 9.22317V8.30255C22.5771 5.15293 20.1977 2.62848 17.3013 2.62848C14.4049 2.62848 12.0256 5.15293 12.0256 8.30255V9.22581H22.5771V9.22317ZM30.8785 28.849C30.9988 28.7181 31.1443 28.6128 31.3064 28.5396C31.4684 28.4664 31.6435 28.4267 31.8213 28.4229C31.9991 28.4191 32.1758 28.4512 32.3408 28.5174C32.5058 28.5837 32.6557 28.6826 32.7815 28.8082C32.9073 28.9338 33.0064 29.0836 33.0729 29.2485C33.1394 29.4135 33.1718 29.5901 33.1682 29.7679C33.1647 29.9457 33.1252 30.1209 33.0522 30.283C32.9792 30.4451 32.8742 30.5908 32.7434 30.7113L27.4677 35.9871C27.2204 36.2343 26.8849 36.3732 26.5352 36.3732C26.1855 36.3732 25.85 36.2343 25.6027 35.9871L20.327 30.7113C20.201 30.5897 20.1005 30.4441 20.0314 30.2832C19.9623 30.1223 19.9259 29.9492 19.9244 29.7741C19.9228 29.599 19.9562 29.4253 20.0225 29.2632C20.0888 29.1011 20.1868 28.9538 20.3106 28.83C20.4344 28.7062 20.5817 28.6082 20.7438 28.5419C20.9059 28.4756 21.0796 28.4422 21.2547 28.4437C21.4298 28.4453 21.6029 28.4816 21.7638 28.5508C21.9247 28.6199 22.0703 28.7204 22.1919 28.8463L25.2149 31.872V22.4126C25.2149 22.0628 25.3539 21.7273 25.6012 21.4799C25.8486 21.2326 26.1841 21.0936 26.5339 21.0936C26.8837 21.0936 27.2192 21.2326 27.4665 21.4799C27.7139 21.7273 27.8528 22.0628 27.8528 22.4126V31.872L30.8785 28.8463V28.849Z" fill="#F2C8ED"/>
</svg>
